<svg width="447" height="193" viewBox="0 0 447 193" fill="none" xmlns="http://www.w3.org/2000/svg">
<path d="M248.76 133.64L248.4 121.04C247.2 121.76 245.84 122.28 244.32 122.6C242.8 122.84 241.32 122.96 239.88 122.96C236.92 122.96 234.84 121.88 233.64 119.72C232.52 117.56 231.96 115 231.96 112.04V78.8H247.56V67.16H231.96V49.04L216.84 54.08V67.16H206.64V78.8H216.84V114.8C216.84 121.2 218.52 126.2 221.88 129.8C225.24 133.4 230.04 135.2 236.28 135.2C238.52 135.2 240.76 135.08 243 134.84C245.24 134.6 247.16 134.2 248.76 133.64ZM319.401 100.52C319.401 95.32 318.561 90.6 316.881 86.36C315.281 82.04 313.041 78.32 310.161 75.2C307.281 72.16 303.881 69.8 299.961 68.12C296.041 66.36 291.801 65.48 287.241 65.48C282.601 65.48 278.321 66.36 274.401 68.12C270.481 69.8 267.121 72.16 264.321 75.2C261.441 78.32 259.201 82.04 257.601 86.36C256.001 90.6 255.201 95.32 255.201 100.52C255.201 105.16 255.921 109.6 257.361 113.84C258.801 118 260.881 121.68 263.601 124.88C266.321 128 269.681 130.48 273.681 132.32C277.681 134.24 282.201 135.2 287.241 135.2C292.281 135.2 296.761 134.24 300.681 132.32C304.681 130.48 308.081 128 310.881 124.88C313.601 121.68 315.681 118 317.121 113.84C318.641 109.6 319.401 105.16 319.401 100.52ZM303.561 100.52C303.561 106.76 302.201 112.08 299.481 116.48C296.841 120.8 292.761 122.96 287.241 122.96C284.521 122.96 282.161 122.4 280.161 121.28C278.161 120.08 276.481 118.44 275.121 116.36C273.761 114.36 272.721 112 272.001 109.28C271.361 106.56 271.041 103.64 271.041 100.52C271.041 97.48 271.361 94.6 272.001 91.88C272.721 89.08 273.761 86.64 275.121 84.56C276.561 82.48 278.281 80.84 280.281 79.64C282.281 78.36 284.601 77.72 287.241 77.72C289.961 77.72 292.321 78.32 294.321 79.52C296.401 80.72 298.121 82.36 299.481 84.44C300.841 86.52 301.841 88.96 302.481 91.76C303.201 94.48 303.561 97.4 303.561 100.52ZM373.08 114.2C373.08 111.4 372.64 109 371.76 107C370.96 104.92 369.92 103.12 368.64 101.6C367.28 100.08 365.76 98.8 364.08 97.76C362.4 96.72 360.68 95.76 358.92 94.88C357.08 94.08 355.32 93.36 353.64 92.72C351.96 92 350.44 91.28 349.08 90.56C347.8 89.76 346.76 88.88 345.96 87.92C345.16 86.96 344.76 85.8 344.76 84.44C344.76 81.72 345.84 79.84 348 78.8C350.16 77.76 352.48 77.24 354.96 77.24C357.6 77.24 360.08 77.48 362.4 77.96C364.72 78.44 366.96 79.12 369.12 80L370.08 67.88C367.68 67.16 365.12 66.6 362.4 66.2C359.68 65.72 356.6 65.48 353.16 65.48C349.96 65.48 346.88 65.88 343.92 66.68C341.04 67.48 338.48 68.68 336.24 70.28C334 71.96 332.2 74.04 330.84 76.52C329.56 79 328.92 81.96 328.92 85.4C328.92 88.12 329.32 90.44 330.12 92.36C330.92 94.28 331.96 95.96 333.24 97.4C334.6 98.84 336.12 100.08 337.8 101.12C339.48 102.08 341.24 102.96 343.08 103.76C344.84 104.56 346.56 105.32 348.24 106.04C349.92 106.76 351.44 107.52 352.8 108.32C354.08 109.2 355.12 110.2 355.92 111.32C356.8 112.36 357.24 113.64 357.24 115.16C357.24 116.76 356.8 118.12 355.92 119.24C355.12 120.28 354.12 121.12 352.92 121.76C351.64 122.4 350.28 122.84 348.84 123.08C347.4 123.32 346.08 123.44 344.88 123.44C342.24 123.44 339.36 123.08 336.24 122.36C333.2 121.56 330.48 120.48 328.08 119.12L327.24 132.2C330.12 133.16 333.24 133.88 336.6 134.36C340.04 134.92 343.32 135.2 346.44 135.2C354.12 135.2 360.48 133.56 365.52 130.28C370.56 127 373.08 121.64 373.08 114.2ZM426.4 114.2C426.4 111.4 425.96 109 425.08 107C424.28 104.92 423.24 103.12 421.96 101.6C420.6 100.08 419.08 98.8 417.4 97.76C415.72 96.72 414 95.76 412.24 94.88C410.4 94.08 408.64 93.36 406.96 92.72C405.28 92 403.76 91.28 402.4 90.56C401.12 89.76 400.08 88.88 399.28 87.92C398.48 86.96 398.08 85.8 398.08 84.44C398.08 81.72 399.16 79.84 401.32 78.8C403.48 77.76 405.8 77.24 408.28 77.24C410.92 77.24 413.4 77.48 415.72 77.96C418.04 78.44 420.28 79.12 422.44 80L423.4 67.88C421 67.16 418.44 66.6 415.72 66.2C413 65.72 409.92 65.48 406.48 65.48C403.28 65.48 400.2 65.88 397.24 66.68C394.36 67.48 391.8 68.68 389.56 70.28C387.32 71.96 385.52 74.04 384.16 76.52C382.88 79 382.24 81.96 382.24 85.4C382.24 88.12 382.64 90.44 383.44 92.36C384.24 94.28 385.28 95.96 386.56 97.4C387.92 98.84 389.44 100.08 391.12 101.12C392.8 102.08 394.56 102.96 396.4 103.76C398.16 104.56 399.88 105.32 401.56 106.04C403.24 106.76 404.76 107.52 406.12 108.32C407.4 109.2 408.44 110.2 409.24 111.32C410.12 112.36 410.56 113.64 410.56 115.16C410.56 116.76 410.12 118.12 409.24 119.24C408.44 120.28 407.44 121.12 406.24 121.76C404.96 122.4 403.6 122.84 402.16 123.08C400.72 123.32 399.4 123.44 398.2 123.44C395.56 123.44 392.68 123.08 389.56 122.36C386.52 121.56 383.8 120.48 381.4 119.12L380.56 132.2C383.44 133.16 386.56 133.88 389.92 134.36C393.36 134.92 396.64 135.2 399.76 135.2C407.44 135.2 413.8 133.56 418.84 130.28C423.88 127 426.4 121.64 426.4 114.2Z" fill="#3432FF"/>
<path d="M179 95.9473C179 139.218 159.561 171 102.587 171C62.0479 171 57.337 143.651 44.5174 147.935C31.3696 152.328 11 162.579 11 162.579C11 162.579 14.2044 122.307 21.2261 95.9473C31.7348 42.4951 56.9692 20.8396 102.587 19.064C148.205 17.2885 179 52.6771 179 95.9473Z" fill="#3432FF"/>
</svg>
