<svg width="448" height="193" viewBox="0 0 448 193" fill="none" xmlns="http://www.w3.org/2000/svg">
<path d="M249.26 132.6L248.9 120C247.7 120.72 246.34 121.24 244.82 121.56C243.3 121.8 241.82 121.92 240.38 121.92C237.42 121.92 235.34 120.84 234.14 118.68C233.02 116.52 232.46 113.96 232.46 111V77.76H248.06V66.12H232.46V48L217.34 53.04V66.12H207.14V77.76H217.34V113.76C217.34 120.16 219.02 125.16 222.38 128.76C225.74 132.36 230.54 134.16 236.78 134.16C239.02 134.16 241.26 134.04 243.5 133.8C245.74 133.56 247.66 133.16 249.26 132.6Z" fill="#3432FF"/>
<path d="M319.901 99.48C319.901 94.28 319.061 89.56 317.381 85.32C315.781 81 313.541 77.28 310.661 74.16C307.781 71.12 304.381 68.76 300.461 67.08C296.541 65.32 292.301 64.44 287.741 64.44C283.101 64.44 278.821 65.32 274.901 67.08C270.981 68.76 267.621 71.12 264.821 74.16C261.941 77.28 259.701 81 258.101 85.32C256.501 89.56 255.701 94.28 255.701 99.48C255.701 104.12 256.421 108.56 257.861 112.8C259.301 116.96 261.381 120.64 264.101 123.84C266.821 126.96 270.181 129.44 274.181 131.28C278.181 133.2 282.701 134.16 287.741 134.16C292.781 134.16 297.261 133.2 301.181 131.28C305.181 129.44 308.581 126.96 311.381 123.84C314.101 120.64 316.181 116.96 317.621 112.8C319.141 108.56 319.901 104.12 319.901 99.48ZM304.061 99.48C304.061 105.72 302.701 111.04 299.981 115.44C297.341 119.76 293.261 121.92 287.741 121.92C285.021 121.92 282.661 121.36 280.661 120.24C278.661 119.04 276.981 117.4 275.621 115.32C274.261 113.32 273.221 110.96 272.501 108.24C271.861 105.52 271.541 102.6 271.541 99.48C271.541 96.44 271.861 93.56 272.501 90.84C273.221 88.04 274.261 85.6 275.621 83.52C277.061 81.44 278.781 79.8 280.781 78.6C282.781 77.32 285.101 76.68 287.741 76.68C290.461 76.68 292.821 77.28 294.821 78.48C296.901 79.68 298.621 81.32 299.981 83.4C301.341 85.48 302.341 87.92 302.981 90.72C303.701 93.44 304.061 96.36 304.061 99.48Z" fill="#3432FF"/>
<path d="M373.58 113.16C373.58 110.36 373.14 107.96 372.26 105.96C371.46 103.88 370.42 102.08 369.14 100.56C367.78 99.04 366.26 97.76 364.58 96.72C362.9 95.68 361.18 94.72 359.42 93.84C357.58 93.04 355.82 92.32 354.14 91.68C352.46 90.96 350.94 90.24 349.58 89.52C348.3 88.72 347.26 87.84 346.46 86.88C345.66 85.92 345.26 84.76 345.26 83.4C345.26 80.68 346.34 78.8 348.5 77.76C350.66 76.72 352.98 76.2 355.46 76.2C358.1 76.2 360.58 76.44 362.9 76.92C365.22 77.4 367.46 78.08 369.62 78.96L370.58 66.84C368.18 66.12 365.62 65.56 362.9 65.16C360.18 64.68 357.1 64.44 353.66 64.44C350.46 64.44 347.38 64.84 344.42 65.64C341.54 66.44 338.98 67.64 336.74 69.24C334.5 70.92 332.7 73 331.34 75.48C330.06 77.96 329.42 80.92 329.42 84.36C329.42 87.08 329.82 89.4 330.62 91.32C331.42 93.24 332.46 94.92 333.74 96.36C335.1 97.8 336.62 99.04 338.3 100.08C339.98 101.04 341.74 101.92 343.58 102.72C345.34 103.52 347.06 104.28 348.74 105C350.42 105.72 351.94 106.48 353.3 107.28C354.58 108.16 355.62 109.16 356.42 110.28C357.3 111.32 357.74 112.6 357.74 114.12C357.74 115.72 357.3 117.08 356.42 118.2C355.62 119.24 354.62 120.08 353.42 120.72C352.14 121.36 350.78 121.8 349.34 122.04C347.9 122.28 346.58 122.4 345.38 122.4C342.74 122.4 339.86 122.04 336.74 121.32C333.7 120.52 330.98 119.44 328.58 118.08L327.74 131.16C330.62 132.12 333.74 132.84 337.1 133.32C340.54 133.88 343.82 134.16 346.94 134.16C354.62 134.16 360.98 132.52 366.02 129.24C371.06 125.96 373.58 120.6 373.58 113.16Z" fill="#3432FF"/>
<path d="M426.9 113.16C426.9 110.36 426.46 107.96 425.58 105.96C424.78 103.88 423.74 102.08 422.46 100.56C421.1 99.04 419.58 97.76 417.9 96.72C416.22 95.68 414.5 94.72 412.74 93.84C410.9 93.04 409.14 92.32 407.46 91.68C405.78 90.96 404.26 90.24 402.9 89.52C401.62 88.72 400.58 87.84 399.78 86.88C398.98 85.92 398.58 84.76 398.58 83.4C398.58 80.68 399.66 78.8 401.82 77.76C403.98 76.72 406.3 76.2 408.78 76.2C411.42 76.2 413.9 76.44 416.22 76.92C418.54 77.4 420.78 78.08 422.94 78.96L423.9 66.84C421.5 66.12 418.94 65.56 416.22 65.16C413.5 64.68 410.42 64.44 406.98 64.44C403.78 64.44 400.7 64.84 397.74 65.64C394.86 66.44 392.3 67.64 390.06 69.24C387.82 70.92 386.02 73 384.66 75.48C383.38 77.96 382.74 80.92 382.74 84.36C382.74 87.08 383.14 89.4 383.94 91.32C384.74 93.24 385.78 94.92 387.06 96.36C388.42 97.8 389.94 99.04 391.62 100.08C393.3 101.04 395.06 101.92 396.9 102.72C398.66 103.52 400.38 104.28 402.06 105C403.74 105.72 405.26 106.48 406.62 107.28C407.9 108.16 408.94 109.16 409.74 110.28C410.62 111.32 411.06 112.6 411.06 114.12C411.06 115.72 410.62 117.08 409.74 118.2C408.94 119.24 407.94 120.08 406.74 120.72C405.46 121.36 404.1 121.8 402.66 122.04C401.22 122.28 399.9 122.4 398.7 122.4C396.06 122.4 393.18 122.04 390.06 121.32C387.02 120.52 384.3 119.44 381.9 118.08L381.06 131.16C383.94 132.12 387.06 132.84 390.42 133.32C393.86 133.88 397.14 134.16 400.26 134.16C407.94 134.16 414.3 132.52 419.34 129.24C424.38 125.96 426.9 120.6 426.9 113.16Z" fill="#3432FF"/>
<path d="M174 91.5C174 126.57 145.362 155 110.036 155C80.0284 155 68.9729 134.617 68.9729 134.617L39.7548 148.728C39.7548 148.728 35.8064 102.475 39.7548 84.4444C47.3083 49.9506 74.7099 28 110.036 28C145.362 28 174 56.4299 174 91.5Z" fill="#3432FF"/>
</svg>
